<svg width="28" height="28" viewBox="0 0 28 28" fill="none" xmlns="http://www.w3.org/2000/svg">
<path d="M5.24992 24.5C4.60563 24.5 4.08325 23.9776 4.08325 23.3333V4.66667C4.08325 4.02237 4.60563 3.5 5.24992 3.5C5.89421 3.5 6.41659 4.02237 6.41659 4.66667V23.3333C6.41659 23.9776 5.89421 24.5 5.24992 24.5Z" fill="url(#paint0_linear_14266_46555)"/>
<path d="M24.4999 6.41671V19.25C24.4999 19.5709 24.2374 19.8334 23.9166 19.8334H13.4166C13.2416 19.8334 13.0724 19.7517 12.9616 19.6117C12.8508 19.4775 12.81 19.2967 12.8449 19.1217L15.7616 6.28837C15.8258 6.02004 16.0591 5.83337 16.3333 5.83337H23.9166C24.2374 5.83337 24.4999 6.09587 24.4999 6.41671Z" fill="url(#paint1_linear_14266_46555)"/>
<path d="M17.1033 5.635L14.5133 17.045C14.4549 17.3133 14.2216 17.5 13.9474 17.5H8.16659C7.84575 17.5 7.58325 17.2375 7.58325 16.9167V4.08333C7.58325 3.7625 7.84575 3.5 8.16659 3.5H15.3999C15.9308 3.5 16.4324 3.73917 16.7649 4.15917C17.0974 4.57333 17.2258 5.11583 17.1033 5.635Z" fill="url(#paint2_linear_14266_46555)"/>
<defs>
<linearGradient id="paint0_linear_14266_46555" x1="5.24992" y1="24.5" x2="5.24992" y2="3.5" gradientUnits="userSpaceOnUse">
<stop stop-color="#1F7CF9"/>
<stop offset="0.9944" stop-color="#00B4FF"/>
</linearGradient>
<linearGradient id="paint1_linear_14266_46555" x1="12.8327" y1="12.8334" x2="24.4999" y2="12.8334" gradientUnits="userSpaceOnUse">
<stop stop-color="#E24429"/>
<stop offset="1" stop-color="#FF872F"/>
</linearGradient>
<linearGradient id="paint2_linear_14266_46555" x1="7.22275" y1="16.548" x2="15.0703" y2="4.16908" gradientUnits="userSpaceOnUse">
<stop stop-color="#E24429"/>
<stop offset="1" stop-color="#FF872F"/>
</linearGradient>
</defs>
</svg>
