<svg width="28" height="28" viewBox="0 0 28 28" fill="none" xmlns="http://www.w3.org/2000/svg">
<path fill-rule="evenodd" clip-rule="evenodd" d="M15.3402 22.1729C15.3402 22.3808 15.1717 22.5493 14.9638 22.5493C14.756 22.5493 14.5875 22.3808 14.5875 22.1729V21.6293C14.5875 21.4215 14.756 21.253 14.9638 21.253C15.1717 21.253 15.3402 21.4215 15.3402 21.6293V22.1729ZM11.4989 25.0979V18.3606C11.4989 18.1527 11.6674 17.9842 11.8752 17.9842H16.1238C16.3316 17.9842 16.5001 18.1527 16.5001 18.3606V25.0979H22.5621C22.7623 25.0979 22.9254 24.9347 22.9254 24.7346V13.6831C21.7157 13.703 20.5262 13.1081 19.8428 12.0288C19.2124 13.042 18.0885 13.7194 16.8127 13.7194C15.6723 13.7194 14.6532 13.1782 13.9995 12.3396C13.3458 13.1782 12.3267 13.7194 11.1863 13.7194C9.92198 13.7194 8.79973 13.0514 8.1657 12.0493C7.48727 13.1421 6.29035 13.7408 5.07349 13.7191V24.7346C5.07349 24.9347 5.23669 25.098 5.43682 25.098H11.4989V25.0979ZM17.6585 17.6021V16.4375C17.6585 16.2375 17.8217 16.0742 18.0217 16.0742H20.6259C20.826 16.0742 20.9892 16.2375 20.9892 16.4375V17.6021C20.9892 17.8022 20.826 17.9654 20.6259 17.9654H18.0217C17.8217 17.9654 17.6585 17.8022 17.6585 17.6021ZM9.97726 17.9654H7.37314C7.17301 17.9654 7.00981 17.8022 7.00981 17.6021V16.4375C7.00981 16.2375 7.17301 16.0742 7.37314 16.0742H9.97726C10.1774 16.0742 10.3405 16.2375 10.3405 16.4375V17.6021C10.3405 17.8022 10.1774 17.9654 9.97726 17.9654ZM6.39112 2.36809L21.6078 2.33337L25.2918 8.7143C26.0655 10.0543 25.6021 11.7836 24.2622 12.5573C22.9241 13.3299 21.1918 12.8657 20.4192 11.5275L19.6259 10.1535C19.6259 11.7008 18.36 12.9667 16.8127 12.9667C15.2654 12.9667 13.9995 11.7008 13.9995 10.1535C13.9995 11.7008 12.7336 12.9667 11.1863 12.9667C9.65011 12.9667 8.37308 11.7118 8.37308 10.1709L7.57976 11.5623C6.80606 12.9022 5.07683 13.3656 3.73676 12.592C2.39866 11.8194 1.93457 10.0871 2.70709 8.74902L6.39112 2.36809Z" fill="url(#paint0_linear_14266_46636)"/>
<defs>
<linearGradient id="paint0_linear_14266_46636" x1="23.7709" y1="24.0393" x2="4.24546" y2="4.51381" gradientUnits="userSpaceOnUse">
<stop stop-color="#EC2AFF"/>
<stop offset="1" stop-color="#6AC6FF"/>
</linearGradient>
</defs>
</svg>
