<svg width="28" height="28" viewBox="0 0 28 28" fill="none" xmlns="http://www.w3.org/2000/svg">
<path d="M19.2227 5.15894H18.5391V4.47534C18.5391 4.0975 18.2333 3.79175 17.8555 3.79175C17.4776 3.79175 17.1719 4.0975 17.1719 4.47534V5.15894H16.4883C16.1104 5.15894 15.8047 5.46468 15.8047 5.84253C15.8047 6.22037 16.1104 6.52612 16.4883 6.52612H17.1719V7.20972C17.1719 7.58756 17.4776 7.89331 17.8555 7.89331C18.2333 7.89331 18.5391 7.58756 18.5391 7.20972V6.52612H19.2227C19.6005 6.52612 19.9062 6.22037 19.9062 5.84253C19.9062 5.46468 19.6005 5.15894 19.2227 5.15894ZM8.28516 20.198H7.60156V19.5144C7.60156 19.1366 7.29581 18.8308 6.91797 18.8308C6.54012 18.8308 6.23438 19.1366 6.23438 19.5144V20.198H5.55078C5.17294 20.198 4.86719 20.5037 4.86719 20.8816C4.86719 21.2594 5.17294 21.5652 5.55078 21.5652H6.23438V22.2488C6.23438 22.6266 6.54012 22.9324 6.91797 22.9324C7.29581 22.9324 7.60156 22.6266 7.60156 22.2488V21.5652H8.28516C8.663 21.5652 8.96875 21.2594 8.96875 20.8816C8.96875 20.5037 8.663 20.198 8.28516 20.198Z" fill="url(#paint0_linear_14266_46621)"/>
<path d="M23.7241 9.38929C23.5445 9.26046 23.3155 9.22441 23.1079 9.29582L14.9048 12.0302C14.6258 12.123 14.4375 12.384 14.4375 12.6784V20.5782C14.0337 20.3427 13.5706 20.198 13.0703 20.198C11.5623 20.198 10.3359 21.4243 10.3359 22.9323C10.3359 24.4404 11.5623 25.6667 13.0703 25.6667C14.5784 25.6667 15.8047 24.4404 15.8047 22.9323V15.9299L22.6406 13.6513V17.8438C22.2368 17.6084 21.7737 17.4636 21.2734 17.4636C19.7654 17.4636 18.5391 18.6899 18.5391 20.198C18.5391 21.706 19.7654 22.9323 21.2734 22.9323C22.7815 22.9323 24.0078 21.706 24.0078 20.198V9.94405C24.0078 9.72444 23.9023 9.51813 23.7241 9.38929ZM11.7031 9.85291C11.7031 10.2308 12.0089 10.5365 12.3867 10.5365C12.7646 10.5365 13.0703 10.2308 13.0703 9.85291C13.0703 7.43631 11.7646 6.56578 10.7151 5.86619C9.73912 5.21595 8.96875 4.70194 8.96875 3.01697C8.96875 2.63912 8.663 2.33337 8.28516 2.33337C7.90731 2.33337 7.60156 2.63912 7.60156 3.01697V11.0079C7.19779 10.7724 6.73463 10.6276 6.23438 10.6276C4.72632 10.6276 3.5 11.854 3.5 13.362C3.5 14.8701 4.72632 16.0964 6.23438 16.0964C7.74243 16.0964 8.96875 14.8701 8.96875 13.362V6.26705C9.29318 6.55252 9.63566 6.78959 9.95677 7.00373C10.9328 7.65392 11.7031 8.16794 11.7031 9.85291Z" fill="url(#paint1_linear_14266_46621)"/>
<defs>
<linearGradient id="paint0_linear_14266_46621" x1="12.3867" y1="22.9324" x2="12.3867" y2="3.79175" gradientUnits="userSpaceOnUse">
<stop stop-color="#C3FFE8"/>
<stop offset="0.9973" stop-color="#F0FFF4"/>
</linearGradient>
<linearGradient id="paint1_linear_14266_46621" x1="13.7539" y1="25.6667" x2="13.7539" y2="2.33337" gradientUnits="userSpaceOnUse">
<stop stop-color="#00B59C"/>
<stop offset="1" stop-color="#9CFFAC"/>
</linearGradient>
</defs>
</svg>
