<svg width="28" height="28" viewBox="0 0 28 28" fill="none" xmlns="http://www.w3.org/2000/svg">
<path d="M19.0931 20.9906V21.9881C19.0925 22.2498 18.988 22.5004 18.8026 22.685C18.6171 22.8696 18.366 22.973 18.1044 22.9725H10.3956C10.134 22.973 9.88287 22.8696 9.69745 22.685C9.51204 22.5004 9.40752 22.2498 9.40688 21.9881V20.9906C9.40703 20.494 9.56345 20.01 9.85398 19.6071C10.1445 19.2043 10.5544 18.9032 11.0256 18.7463L11.6775 18.5275C12.0141 18.8676 12.4147 19.1375 12.8563 19.3218C13.2978 19.506 13.7716 19.6009 14.25 19.6009C14.7285 19.6009 15.2022 19.506 15.6438 19.3217C16.0853 19.1375 16.486 18.8675 16.8225 18.5274L17.4744 18.7463C17.9456 18.9032 18.3555 19.2043 18.646 19.6071C18.9366 20.01 19.093 20.494 19.0931 20.9906ZM14.25 10.46C14.7899 10.46 15.3178 10.2999 15.7667 9.99991C16.2157 9.69994 16.5656 9.27357 16.7722 8.77473C16.9788 8.27588 17.0329 7.72697 16.9275 7.1974C16.8222 6.66784 16.5622 6.1814 16.1804 5.7996C15.7986 5.4178 15.3122 5.1578 14.7826 5.05246C14.253 4.94712 13.7041 5.00118 13.2053 5.20781C12.7064 5.41444 12.2801 5.76435 11.9801 6.21329C11.6801 6.66224 11.52 7.19006 11.52 7.73C11.5209 8.45376 11.8089 9.14761 12.3206 9.65938C12.8324 10.1712 13.5262 10.4591 14.25 10.46ZM10.8944 14.695C11.158 14.0195 11.6193 13.4394 12.218 13.0303C12.8167 12.6213 13.5249 12.4025 14.25 12.4025C14.9751 12.4025 15.6833 12.6213 16.282 13.0303C16.8807 13.4394 17.342 14.0195 17.6056 14.695H18.0781C18.1762 13.9084 18.5315 13.1763 19.0888 12.6125C19.07 12.1333 18.9053 11.6713 18.6168 11.2882C18.3283 10.9051 17.9297 10.6192 17.4744 10.4688L16.8181 10.25C16.4843 10.5933 16.0851 10.8663 15.644 11.0526C15.2029 11.239 14.7289 11.335 14.25 11.335C13.7711 11.335 13.2971 11.239 12.856 11.0526C12.4149 10.8663 12.0157 10.5933 11.6819 10.25L11.0256 10.4688C10.5703 10.6192 10.1717 10.9051 9.88321 11.2882C9.59472 11.6713 9.43006 12.1333 9.41126 12.6125C9.96848 13.1763 10.3238 13.9084 10.4219 14.695H10.8944ZM14.25 13.2775C13.7094 13.2771 13.1809 13.437 12.7313 13.737C12.2816 14.0371 11.9311 14.4638 11.724 14.9631C11.517 15.4624 11.4627 16.012 11.568 16.5422C11.6734 17.0724 11.9336 17.5594 12.3159 17.9416C12.6981 18.3239 13.1851 18.5841 13.7153 18.6895C14.2455 18.7948 14.7951 18.7405 15.2944 18.5335C15.7937 18.3264 16.2204 17.9759 16.5205 17.5262C16.8205 17.0766 16.9804 16.5481 16.98 16.0075C16.9791 15.2837 16.6912 14.5899 16.1794 14.0781C15.6676 13.5663 14.9738 13.2784 14.25 13.2775ZM6.84313 17.8713C7.38351 17.8717 7.91187 17.7119 8.36142 17.412C8.81097 17.1122 9.1615 16.6857 9.36869 16.1866C9.57588 15.6876 9.63043 15.1383 9.52543 14.6082C9.42043 14.0781 9.16061 13.5911 8.77881 13.2087C8.39701 12.8263 7.91039 12.5656 7.38049 12.4598C6.85058 12.354 6.30118 12.4076 5.80178 12.614C5.30237 12.8204 4.87538 13.1703 4.5748 13.6193C4.27423 14.0684 4.11356 14.5965 4.11313 15.1369C4.11389 15.8611 4.40162 16.5555 4.9133 17.068C5.42499 17.5805 6.11892 17.8693 6.84313 17.8713ZM21.6569 17.8713C22.1973 17.8717 22.7256 17.7119 23.1752 17.412C23.6247 17.1122 23.9752 16.6857 24.1824 16.1866C24.3896 15.6876 24.4442 15.1383 24.3392 14.6082C24.2342 14.0781 23.9744 13.5911 23.5926 13.2087C23.2108 12.8263 22.7241 12.5656 22.1942 12.4598C21.6643 12.354 21.1149 12.4076 20.6155 12.614C20.1161 12.8204 19.6891 13.1703 19.3886 13.6193C19.088 14.0684 18.9273 14.5965 18.9269 15.1369C18.9276 15.8611 19.2154 16.5555 19.7271 17.068C20.2387 17.5805 20.9327 17.8693 21.6569 17.8713ZM24.8813 17.8756L24.2294 17.6569C23.8954 18.0015 23.4956 18.2756 23.0537 18.4627C22.6118 18.6498 22.1368 18.7463 21.6569 18.7463C21.177 18.7463 20.7019 18.6498 20.26 18.4627C19.8181 18.2756 19.4183 18.0015 19.0843 17.6569C18.7342 17.7585 18.3921 17.8857 18.0606 18.0375C18.6292 18.2937 19.1117 18.7087 19.4501 19.2326C19.7885 19.7565 19.9684 20.367 19.9682 20.9906C19.9593 21.0801 19.9825 22.0375 19.9638 22.1019H25.5113C25.6411 22.102 25.7698 22.0765 25.8898 22.0269C26.0098 21.9772 26.1189 21.9044 26.2107 21.8126C26.3025 21.7207 26.3754 21.6117 26.425 21.4917C26.4747 21.3716 26.5001 21.243 26.5 21.1131V20.12C26.5011 19.6231 26.3452 19.1385 26.0545 18.7354C25.7638 18.3324 25.3531 18.0314 24.8813 17.8756ZM10.4394 18.0375C10.1069 17.8881 9.76493 17.7609 9.41563 17.6568C9.07908 17.9969 8.67844 18.2669 8.23688 18.4511C7.79532 18.6354 7.32161 18.7303 6.84315 18.7303C6.36469 18.7303 5.89097 18.6354 5.44941 18.4512C5.00784 18.2669 4.60719 17.997 4.27063 17.6569L3.61876 17.8756C3.14686 18.0315 2.73625 18.3324 2.44555 18.7354C2.15485 19.1385 1.99891 19.6231 2.00001 20.12V21.1131C1.99987 21.243 2.02535 21.3716 2.075 21.4917C2.12464 21.6117 2.19746 21.7207 2.2893 21.8126C2.38115 21.9044 2.4902 21.9772 2.61022 22.0269C2.73024 22.0765 2.85887 22.102 2.98876 22.1019H8.53626C8.52275 22.0897 8.53981 21.0397 8.53188 20.9906C8.53163 20.367 8.71151 19.7565 9.04989 19.2326C9.38827 18.7087 9.87076 18.2937 10.4394 18.0375Z" fill="url(#paint0_linear_14266_46457)"/>
<defs>
<linearGradient id="paint0_linear_14266_46457" x1="2.00001" y1="13.9863" x2="26.5" y2="13.9863" gradientUnits="userSpaceOnUse">
<stop stop-color="#00C0FF"/>
<stop offset="1" stop-color="#5558FF"/>
</linearGradient>
</defs>
</svg>
